<svg fill="none" xmlns="http://www.w3.org/2000/svg" viewBox="0 0 83 20">
  <g clip-path="url(#XqrO_GoQ777qa)">
    <path d="M19.338 18.332h-4.567l-1.4-3.369H5.764l-1.273 3.369H0L6.861 1.315h4.916l7.561 17.017zM9.382 5.381l-2.5 6.612h5.24l-2.74-6.612zm26.543-4.066h3.693v17.017h-4.242V7.7l-4.591 5.339h-.649L25.545 7.7v10.632H21.3V1.315H25l5.46 6.313 5.465-6.313zm14.442 0c6.213 0 9.406 3.867 9.406 8.533 0 4.89-3.094 8.484-9.88 8.484h-7.037V1.315h7.511zM47.1 15.213h2.769c4.267 0 5.539-2.9 5.539-5.391 0-2.92-1.572-5.389-5.589-5.389H47.1v10.78zM68.212 5.35L62.863 0h19.473v19.474l-5.349-5.349V5.35h-8.775zm-.006 1.072L62.7 11.929v7.709h7.708l5.507-5.507h-7.709V6.422z" fill="#041E42"/>
  </g>
  <defs>
    <clipPath id="XqrO_GoQ777qa">
      <path fill="#fff" d="M0 0h82.336v19.638H0z"/>
    </clipPath>
  </defs>
</svg>
