<svg fill="none" xmlns="http://www.w3.org/2000/svg" viewBox="0 0 82 25">
  <g clip-path="url(#tNbrDlB8UzGTa)">
    <path d="M0 17.57V.364h3.022V17.57H0zM10.759 5.088a6.411 6.411 0 10.03 12.818 6.41 6.41 0 10-.03-12.819v.001zM10.724 8a3.462 3.462 0 11.022 6.924A3.462 3.462 0 0110.724 8zm14.164-2.912a6.411 6.411 0 10.03 12.818 6.347 6.347 0 006.5-6.437 4.825 4.825 0 00-.985-3.284l.838-.287V5.445h-4.287a6.477 6.477 0 00-2.1-.357h.004zM24.853 8a3.462 3.462 0 11.018 6.923A3.462 3.462 0 0124.853 8zm3.5 10.408a3.488 3.488 0 11-6.976 0H18.31a6.332 6.332 0 006.59 6.432 6.339 6.339 0 006.5-6.428l-3.047-.004zm4.282-.841V5.445h3.023V17.57l-3.023-.003zm5.957 0V8.161h-1.621V5.445h1.621V1.722h3.022v3.723h1.665v2.716h-1.665v9.409l-3.022-.003zM36.141 2a2 2 0 11-4 0 2 2 0 014 0zm13.933 3.08a6.277 6.277 0 00-6.4 6.508 6.09 6.09 0 006.467 6.327 7.176 7.176 0 005.495-2.3l-2.02-2.023a5.382 5.382 0 01-3.436 1.646 3.268 3.268 0 01-3.31-2.519h9.418v-.832c0-3.321-1.922-6.806-6.209-6.806l-.005-.001zm-.1 2.661a3 3 0 013.135 2.524h-6.33a3.154 3.154 0 013.2-2.524h-.005zm13.869 10.175a6.42 6.42 0 11-.013-12.84A6.647 6.647 0 0169.013 7.5L66.9 9.6a4.313 4.313 0 00-3.088-1.578 3.4 3.4 0 00-3.484 3.464A3.428 3.428 0 0063.788 15a4.3 4.3 0 003.112-1.58l2.13 2.1a6.624 6.624 0 01-5.188 2.4l.001-.004zm6.288-.337V.32h3.022v6.341a4.62 4.62 0 013.675-1.584c3.165 0 5 2.353 5 5.362v7.14H78.8V10.9a2.553 2.553 0 00-2.653-2.86 2.789 2.789 0 00-3 3.017v6.527h-3.016v-.005z" fill="#041E42"/>
  </g>
  <defs>
    <clipPath id="tNbrDlB8UzGTa">
      <path fill="#fff" d="M0 0h81.828v24.845H0z"/>
    </clipPath>
  </defs>
</svg>
