<svg fill="none" xmlns="http://www.w3.org/2000/svg" viewBox="0 0 99 30">
  <g clip-path="url(#kAkc1JrrOqUEa)">
    <path d="M14.756 0a14.756 14.756 0 10.002 29.512A14.756 14.756 0 0014.756 0zm6.767 21.282a.918.918 0 01-1.265.3c-3.465-2.116-7.826-2.6-12.963-1.422a.92.92 0 01-.409-1.794c5.621-1.284 10.443-.731 14.332 1.646a.92.92 0 01.305 1.27zm1.806-4.018a1.15 1.15 0 01-1.582.38 19.368 19.368 0 00-14.7-1.721 1.15 1.15 0 01-.673-2.2 21.527 21.527 0 0116.573 1.96 1.149 1.149 0 01.379 1.582l.003-.001zm.155-4.184c-4.756-2.825-12.6-3.085-17.143-1.706a1.379 1.379 0 11-.8-2.641c5.212-1.582 13.877-1.277 19.353 1.974a1.381 1.381 0 01-1.408 2.374l-.002-.001zm16.663.543c-2.548-.608-3-1.034-3-1.93 0-.847.8-1.416 1.982-1.416a5.791 5.791 0 013.482 1.323.168.168 0 00.236-.037l1.244-1.754a.167.167 0 00-.032-.227 7.528 7.528 0 00-4.893-1.7c-2.751 0-4.673 1.651-4.673 4.013 0 2.533 1.658 3.43 4.523 4.122 2.437.562 2.849 1.032 2.849 1.873 0 .932-.832 1.512-2.171 1.512a5.86 5.86 0 01-4.058-1.676.167.167 0 00-.237.017l-1.4 1.66a.168.168 0 00.016.233 8.315 8.315 0 005.618 2.153c2.964 0 4.879-1.619 4.879-4.127.005-2.116-1.262-3.288-4.365-4.042h-.005l.005.003zm11.076-2.513a4 4 0 00-3.209 1.543v-1.168a.168.168 0 00-.102-.154.166.166 0 00-.064-.013h-2.281a.166.166 0 00-.166.167v12.969a.167.167 0 00.166.167h2.28a.167.167 0 00.166-.167v-4.093a4.1 4.1 0 003.209 1.452c2.388 0 4.805-1.838 4.805-5.351s-2.414-5.353-4.8-5.353l-.004.001zm2.152 5.352a2.749 2.749 0 01-2.68 3.038 2.836 2.836 0 01-2.737-3.038 2.835 2.835 0 012.737-3.039 2.78 2.78 0 012.68 3.037v.002zm8.847-5.352a5.363 5.363 0 105.464 5.352 5.379 5.379 0 00-5.464-5.352zm0 8.408a2.9 2.9 0 01-2.869-3.056 2.834 2.834 0 013.973-2.777 2.908 2.908 0 011.745 2.815 2.84 2.84 0 01-2.849 3.018zm12.03-8.2h-2.511V8.751a.168.168 0 00-.048-.118.165.165 0 00-.118-.049h-2.281a.168.168 0 00-.167.167v2.567h-1.1a.166.166 0 00-.166.167v1.961a.167.167 0 00.166.167h1.1v5.074c0 2.049 1.02 3.089 3.034 3.089a4.156 4.156 0 002.136-.532.163.163 0 00.085-.144v-1.869a.167.167 0 00-.241-.148 2.88 2.88 0 01-1.339.322c-.731 0-1.059-.333-1.059-1.077v-4.714h2.511a.166.166 0 00.166-.167v-1.96a.163.163 0 00-.164-.167l-.004-.002zm8.747.01v-.315c0-.927.356-1.341 1.152-1.341.439.005.874.085 1.286.237a.166.166 0 00.219-.159V7.823a.165.165 0 00-.118-.16 6.25 6.25 0 00-1.9-.272c-2.106 0-3.221 1.187-3.221 3.43v.483h-1.1a.168.168 0 00-.167.167v1.971a.168.168 0 00.167.167h1.1v7.825a.167.167 0 00.167.167h2.28a.167.167 0 00.155-.103.168.168 0 00.012-.064v-7.82h2.13l3.263 7.824c-.37.821-.735.985-1.232.985a2.619 2.619 0 01-1.258-.358.182.182 0 00-.132-.012.166.166 0 00-.1.09l-.774 1.7a.168.168 0 00.072.217 4.8 4.8 0 002.435.624c1.685 0 2.617-.786 3.436-2.9l3.966-10.228a.167.167 0 00-.153-.228h-2.376a.167.167 0 00-.159.112l-2.433 6.949-2.669-6.953a.166.166 0 00-.155-.107h-3.9l.007-.001zm-5.071-.01h-2.281a.168.168 0 00-.167.167v9.952a.167.167 0 00.167.167h2.282a.167.167 0 00.167-.167v-9.951a.167.167 0 00-.167-.167l-.001-.001zM76.8 6.786a1.636 1.636 0 10-.002 3.272 1.636 1.636 0 00.002-3.272zm19.986 7.737a1.61 1.61 0 111.614-1.615 1.6 1.6 0 01-1.614 1.615zm.009-3.06a1.45 1.45 0 101.436 1.445 1.437 1.437 0 00-1.436-1.445zm.356 1.61l.455.636h-.384l-.409-.583h-.351v.583h-.321v-1.686h.751c.393 0 .65.2.65.538a.5.5 0 01-.389.512h-.002zm-.271-.76h-.418v.533h.418c.208 0 .333-.1.333-.267s-.126-.271-.334-.271l.001.005z" fill="#041E42"/>
  </g>
  <defs>
    <clipPath id="kAkc1JrrOqUEa">
      <path fill="#fff" d="M0 0h98.4v29.512H0z"/>
    </clipPath>
  </defs>
</svg>
