<svg fill="none" xmlns="http://www.w3.org/2000/svg" viewBox="0 0 15 15">
  <g clip-path="url(#9Djl96DHB_w_a)">
    <path d="M14.248 5.48a.758.758 0 00-.653-.522l-4.123-.374L7.842.768a.76.76 0 00-1.397 0l-1.63 3.816-4.125.374a.76.76 0 00-.43 1.328L3.376 9.02l-.919 4.048a.76.76 0 001.13.821l3.556-2.126 3.555 2.126a.759.759 0 001.13-.82l-.918-4.05 3.117-2.733a.76.76 0 00.221-.807z" fill="#041E42"/>
  </g>
  <defs>
    <clipPath id="9Djl96DHB_w_a">
      <path fill="#fff" d="M0 0h14.286v14.286H0z"/>
    </clipPath>
  </defs>
</svg>
